<svg width="148" height="149" viewBox="0 0 148 149" fill="none" xmlns="http://www.w3.org/2000/svg">
<path d="M140.559 134.1H14.7957V130.077L51.785 92.827L79.8968 121.137C81.2829 122.525 83.1579 123.303 85.1123 123.303C87.0667 123.303 88.9417 122.525 90.3278 121.137L145.812 65.262C146.505 64.5694 147.055 63.7454 147.431 62.8376C147.807 61.9297 148 60.956 148 59.9725C148 58.989 147.807 58.0153 147.431 57.1074C147.055 56.1996 146.505 55.3756 145.812 54.683C144.426 53.2954 142.551 52.5166 140.596 52.5166C138.642 52.5166 136.767 53.2954 135.381 54.683L85.0753 105.343L57.0375 77.033C55.6514 75.6454 53.7764 74.8666 51.822 74.8666C49.8676 74.8666 47.9926 75.6454 46.6065 77.033L14.7957 108.993V70.477L51.785 33.227L72.499 54.087C73.8851 55.4746 75.7601 56.2534 77.7145 56.2534C79.6689 56.2534 81.5439 55.4746 82.93 54.087L118.366 18.4015L134.567 34.717C135.96 36.11 137.846 36.8886 139.809 36.8816C141.772 36.8747 143.652 36.0826 145.035 34.6798C146.418 33.2769 147.191 31.3781 147.184 29.4012C147.178 27.4242 146.391 25.531 144.998 24.138L123.47 2.6075C122.084 1.21993 120.209 0.441094 118.255 0.441094C116.3 0.441094 114.425 1.21993 113.039 2.6075L77.5295 38.3675L56.8895 17.5075C55.5034 16.1199 53.6284 15.3411 51.674 15.3411C49.7196 15.3411 47.8446 16.1199 46.4585 17.5075L14.7957 49.3935V7.45C14.7957 5.47414 14.0163 3.5792 12.6289 2.18205C11.2416 0.784908 9.35989 0 7.39786 0C5.43582 0 3.55415 0.784908 2.16678 2.18205C0.779414 3.5792 0 5.47414 0 7.45V141.55C0 143.526 0.779414 145.421 2.16678 146.818C3.55415 148.215 5.43582 149 7.39786 149H140.559C142.521 149 144.403 148.215 145.79 146.818C147.178 145.421 147.957 143.526 147.957 141.55C147.957 139.574 147.178 137.679 145.79 136.282C144.403 134.885 142.521 134.1 140.559 134.1Z" fill="#D000FF"/>
</svg>
